<svg width="139" height="139" viewBox="0 0 139 139" fill="none" xmlns="http://www.w3.org/2000/svg">
<path d="M38.9451 32.5398C39.9729 44.2319 41.0183 56.0053 41.8534 67.6966C41.9881 69.5823 40.8841 77.0062 42.7944 77.9614" stroke="black" stroke-width="12" stroke-linecap="round"/>
<path d="M77.4379 31C77.4379 41.5071 77.4379 52.0143 77.4379 62.5214C77.4379 65.4611 79.7474 73.9723 79.7474 71.0326" stroke="black" stroke-width="12" stroke-linecap="round"/>
<path d="M12 91.0488C22.5456 97.3192 32.4811 105.511 44.5051 108.841C53.5132 111.336 65.1682 107.709 73.9308 105.762C82.404 103.879 90.9979 102.152 99.5499 100.672C104.315 99.8473 107.487 96.7859 111.483 94.2993C115.292 91.9291 117.326 87.9229 122.09 87.2423C125.007 86.8256 126.573 86.6327 128.249 84.1201" stroke="black" stroke-width="12" stroke-linecap="round"/>
</svg>
